<svg xmlns="http://www.w3.org/2000/svg" viewBox="0 0 652 652">
    <path fill="#18222F" d="M237.2,330.1c-1.4-1.5-3.1-2.7-4.9-3.6c-0.9-0.5-1.8-0.9-2.8-1.2l0.6-0.3c1.2-0.6,2.3-1.4,3.2-2.3  c1.6-1.6,2.8-3.6,3.5-5.8c0.8-2.3,1.1-4.8,1.1-7.3c0-2.4-0.4-4.7-1.1-6.9c-0.7-2-1.9-3.8-3.4-5.3c-3.3-3.2-8.9-5.4-16.4-5.4h-39.3  v69.8h42.1c3.3,0.1,6.6-0.5,9.7-1.6c2.5-1,4.9-2.4,6.8-4.4c1.6-1.7,2.9-3.7,3.6-5.9c0.9-2.4,1.3-5,1.3-7.5c0-2.4-0.3-4.7-1-7  C239.6,333.5,238.6,331.6,237.2,330.1z M221.7,346.3c-0.8,0.6-1.7,1-2.6,1.2c-1.2,0.3-2.5,0.4-3.7,0.4H194v-14.2h21.6  c2.6,0,4.7,0.7,6,1.8l0,0c0.8,0.6,1.3,1.4,1.6,2.4c0.4,1.1,0.5,2.2,0.5,3.4c0,1-0.1,2-0.5,3C222.9,345,222.4,345.7,221.7,346.3z   M219.9,309.6c0.4,1,0.6,2.1,0.6,3.2c0,1.2-0.2,2.5-0.6,3.6c-0.3,0.9-0.8,1.7-1.5,2.4c-0.6,0.5-1.2,0.9-2,1.2  c-0.8,0.3-1.6,0.4-2.5,0.4h-20v-14.6h18.6c1.2,0,2.4,0.1,3.6,0.4c0.9,0.2,1.7,0.6,2.4,1.2C219.1,308,219.6,308.8,219.9,309.6  L219.9,309.6z M254.2,361.8h0.9h16.1V292h-17V361.8z M281.4,306.4h22.1v55.4h17v-55.4h22.2V292h-61.3V306.4z M348.8,306.4h22.1v55.4  h17v-55.4h22.2V292h-61.3V306.4z M477.3,325.5c1.7-2.9,2.6-7.1,2.6-12.3c0-2.5-0.2-5-0.8-7.5c-0.5-2-1.3-3.9-2.4-5.7l0,0  c-1.5-2.6-3.8-4.7-6.6-6c-2.9-1.4-6.6-2.1-11-2.1h-38.8v69.8h16.5v-26.4h16.4l13.2,26.4h18.8L469.2,332  C472.6,331,475.6,328.7,477.3,325.5z M462.6,319.2c-0.2,0.4-0.4,0.7-0.8,0.9c-0.6,0.5-1.3,0.8-2.1,1c-1,0.3-2.1,0.4-3.1,0.4h-19.7  v-15.2h18.9c1.6-0.1,3.1,0.2,4.6,0.8c0.5,0.2,1,0.5,1.4,0.9c0.4,0.4,0.7,0.8,0.9,1.3c0.1,0.3,0.2,0.6,0.3,0.9  c0.3,1.4,0.4,2.8,0.4,4.2c0,0.9-0.1,1.8-0.2,2.6C463.1,317.8,462.9,318.5,462.6,319.2z M512.2,334.2h36v-14.7h-36v-12.9h37.3V292  h-53.7v69.8h0.9h53.2v-14.6h-37.8V334.2z M600.9,325.4l-7.4-10.5L578.1,292h-19.6l24.1,34.5L557,361.8h19.2l0.4-0.5l15.2-21.9  l15.1,22.4h19.5L600.9,325.4z"/>
    <path fill="#1CBCFF" d="M134.6,349.2v-76.8H57.8v22.7h14v-8.7h48.7v48.7h-17.4v-31.4H26.4v76.8h76.8v-22.7h-14v8.7H40.4v-48.7h17.4  v31.4H134.6z M71.8,317.8h17.4v17.4H71.8V317.8z M604.6,304h9.7v9.5h12V292h-21.5v12H604.6z"/>
</svg>