<svg xmlns="http://www.w3.org/2000/svg" viewBox="0 0 652 652">
    <path fill="#262C33" d="M319.1,296l4.3-3.7c-8.8-8.6-20.5-13.4-33-13.4c-13.8,0-25.6,4.5-34,13c-8.6,8.6-13.2,20.8-13,34.3  c0,12.7,4.3,24.1,12,32.4c8.4,9.1,20.6,13.8,35,13.8c12.5,0,24.2-4.8,33-13.4l-4.2-3.9c-7.6,7.4-18.2,11.6-28.9,11.6  c-12.6,0-23.1-4.2-30.5-12.2c-6.7-7.2-10.4-17.4-10.5-28.6c-0.1-12.1,4-22.9,11.4-30.3c7.2-7.3,17.5-11.2,29.6-11.2  C301.3,284.4,311.5,288.5,319.1,296L319.1,296z M341.8,364.2v-36.9h54.1v-5.7h-54.1v-36.6h59.6v-6h-65.9v91.3h64.6v-6H341.8z   M448.8,323.4l0.2-0.2l31-44.2h-6.7l-27.9,39.2l-0.3,0.5l-0.4-0.5l-27.8-39.2H410l31,44.2l0.2,0.2l-0.2,0.2l-33.5,46.6h7.6l29.6-42  l0.4-0.5l0.3,0.5l29.6,42h7.5L449,323.6L448.8,323.4z M448.8,323.4"/>
    <path fill="#00CCCC" d="M113,336.1h64.7l10.3-10.3l-10.3-10.3H113C99.3,315.6,99.3,336.1,113,336.1L113,336.1z M113,336.1 M113,277.8  c-26.6,0-48.2,21.6-48.2,48.1c0,26.6,21.6,48.1,48.2,48.1h26.8l20.6-20.5H113c-15.2,0-27.6-12.4-27.6-27.6  c0-15.2,12.4-27.6,27.6-27.6h47.4l-20.6-20.5H113z M199.1,374v-20.5h-15.5L163,374H199.1z M199.1,374 M52.1,265.1  c-16.3,16.2-25.2,37.8-25.2,60.8c0,23,8.9,44.6,25.2,60.8c16.1,16.2,38,25.3,60.9,25.2h86.1v-20.5H113c-17.4,0-34.1-6.8-46.4-19.1  c-12.3-12.3-19.2-28.9-19.2-46.3c0-17.5,6.8-33.9,19.2-46.3c12.3-12.3,29-19.2,46.3-19.1h86.1v-20.5H113  C90,239.9,68.4,248.8,52.1,265.1L52.1,265.1z M52.1,265.1 M183.6,298.3h15.5v-20.5H163L183.6,298.3z M183.6,298.3 M520.9,278.9h-6  v91.3h6V278.9z M613.8,291.5c-8.2-8.2-19.6-12.6-33-12.6c-31.8,0-46.1,23.6-46.1,47.1c0,12.6,4.1,24.2,11.5,32.8  c8.3,9.6,20.3,14.7,34.5,14.7c14.2,0,26.2-5,34.5-14.5c7.4-8.5,11.5-20.1,11.6-32.6C627,312.4,622.3,300.1,613.8,291.5L613.8,291.5z   M610.8,354.7c-7.2,8.4-17.6,12.9-30,12.9c-12.3,0-22.6-4.5-29.9-12.9c-6.4-7.5-10-17.6-10.1-28.6c0-12.2,4-23.1,11.4-30.6  c7-7.1,16.9-10.8,28.5-10.8c12.4,0,22.9,4.4,30.1,12.6c6.4,7.4,10,17.6,10,28.8C620.9,337,617.3,347.2,610.8,354.7L610.8,354.7z   M488.7,322.3c-6.2,0-6.2,9.3,0,9.3c2.5,0,4.7-2.1,4.7-4.6C493.4,324.4,491.3,322.3,488.7,322.3L488.7,322.3z M488.7,322.3"/>
</svg>