<svg xmlns="http://www.w3.org/2000/svg" viewBox="0 0 803 498">
    <path fill="#408EDD" d="M415.5,279v-18H452v-14h-36.5v-17h41.3v-14.5h-59.3v78.1h60.7V279H415.5z M629.8,293.5l-0.1-46.9l-23,38.5h-8.2  l-23-37.5v45.8h-17v-78h15l29.3,48.5l28.9-48.5h14.9l0.2,78L629.8,293.5z M701.5,229.2c14,0.1,25.2,11.4,25.2,25.4  c-0.1,14-11.4,25.2-25.4,25.2c-13.9-0.1-25.2-11.4-25.2-25.3C676.1,240.6,687.5,229.3,701.5,229.2L701.5,229.2z M701.5,213.6  c-22.6,0.1-40.8,18.5-40.7,41c0.1,22.6,18.5,40.8,41,40.7c22.5-0.1,40.7-18.4,40.8-40.9C742.4,231.9,724.1,213.6,701.5,213.6  L701.5,213.6z M546.8,215.4h-20l-18.6,25.4l-10,13.7l-28.7,39h20l18.6-25.4l18.6,25.4h20l-28.6-39L546.8,215.4L546.8,215.4z   M501.8,232.2l-12.2-16.8h-20.1l22.3,30.4L501.8,232.2z M214.3,215.5l-102.1-0.1l-6.3-11l6.3-10.9h102.1l-6.4,11L214.3,215.5z   M194.7,293.6l58.1-100.1h12.8l6.4,11l-58.1,100.1l-6.4-11L194.7,293.6z M288.1,293.6l58.1-100.1h12.8l6.4,11l-58.1,100.1l-6.4-11  L288.1,293.6z M301.7,233.6l-34.7,60h-12.8l-6.4-11l34.7-60l6.4,11L301.7,233.6L301.7,233.6z M169,293.6H66.9l-6.4-10.9l6.3-11H169  l-6.4,11L169,293.6L169,293.6z M89.6,232.6h69.5l6.4,11l-6.4,11H89.6l6.3-11C96,243.6,89.6,232.6,89.6,232.6z"/>
</svg>