<svg xmlns="http://www.w3.org/2000/svg" viewBox="0 0 800 600">
    <path fill="#57BAE5" d="M523.6,223l-13.2,51.6l-88,11.8L523.6,223z" fill-rule="evenodd" clip-rule="evenodd"/>
    <path fill="#005472" d="M547.4,431.1l21.9-93.7l-28.5-12.1L547.4,431.1z" fill-rule="evenodd" clip-rule="evenodd"/>
    <path fill="#34AFE4" d="M510.4,274.6l-23.2,48.8l-64.8-37.1L510.4,274.6z" fill-rule="evenodd" clip-rule="evenodd"/>
    <path fill="#0076A7" d="M547.4,431.1l-6.5-105.8l-53.7-1.9L547.4,431.1z" fill-rule="evenodd" clip-rule="evenodd"/>
    <path fill="#009DE2" d="M510.4,274.6l30.5,50.7l-53.7-1.9L510.4,274.6z" fill-rule="evenodd" clip-rule="evenodd"/>
    <path fill="#7ACDF2" d="M523.6,223l73,9.4l-86.2,42.2L523.6,223z" fill-rule="evenodd" clip-rule="evenodd"/>
    <path fill="#7ACDF2" d="M676.5,199.5l-46,54.9l3.2-50.8L676.5,199.5z" fill-rule="evenodd" clip-rule="evenodd"/>
    <path fill="#7ACDF2" d="M702,168.1l-25.5,31.4l19.9,2.5L702,168.1z" fill-rule="evenodd" clip-rule="evenodd"/>
    <path fill="#00ABE7" d="M651.7,228.1l44.7-26.1l-19.9-2.5L651.7,228.1z" fill-rule="evenodd" clip-rule="evenodd"/>
    <path fill="#0076A7" d="M569.4,337.4l2.2-63l-30.6,50.9L569.4,337.4z" fill-rule="evenodd" clip-rule="evenodd"/>
    <path fill="#008DBE" d="M571.5,274.4l-30.6,50.9l-30.5-50.7L571.5,274.4z" fill-rule="evenodd" clip-rule="evenodd"/>
    <path fill="#57BAE5" d="M596.6,232.4l-25.1,42l-61.1,0.2L596.6,232.4z" fill-rule="evenodd" clip-rule="evenodd"/>
    <path fill="#00698D" d="M571.5,274.4l-2.2,63l56,58.9L571.5,274.4z" fill-rule="evenodd" clip-rule="evenodd"/>
    <path fill="#09A1CB" d="M654.7,363.4l-29.6-75.5l0.3,108.5L654.7,363.4z" fill-rule="evenodd" clip-rule="evenodd"/>
    <path fill="#09A1CB" d="M630.6,254.4l-5.4,33.4l-53.6-13.5L630.6,254.4z" fill-rule="evenodd" clip-rule="evenodd"/>
    <path fill="#8BDAFF" d="M657.7,299.8l-32.6-12l5.4-33.4L657.7,299.8z" fill-rule="evenodd" clip-rule="evenodd"/>
    <path fill="#7ACDF2" d="M669.4,361.3l-35.5-58.5h20.3L669.4,361.3z" fill-rule="evenodd" clip-rule="evenodd"/>
    <path fill="#57BAE5" d="M603.3,220l27.3,34.5l3.2-50.8L603.3,220z" fill-rule="evenodd" clip-rule="evenodd"/>
    <path fill="#008DBE" d="M625.1,287.9l-53.6-13.5l53.9,121.9L625.1,287.9z" fill-rule="evenodd" clip-rule="evenodd"/>
    <path fill="#0076A7" d="M654.7,363.4l11.8,6.8l-41,26.1L654.7,363.4z" fill-rule="evenodd" clip-rule="evenodd"/>
    <path fill="#57BAE5" d="M669.4,360.6l-44.2-72.8l29.6,75.5L669.4,360.6z" fill-rule="evenodd" clip-rule="evenodd"/>
    <path fill="#7ACDF2" d="M603.3,220l-31.7,54.4l59-20L603.3,220z" fill-rule="evenodd" clip-rule="evenodd"/>
    <path fill="#1D1D1B" d="M180.6,380.2l8.6,4.5l8.6-4.5v50.9h-17.2V380.2z M179.2,363c0-4.9,4.4-8.9,9.9-8.9c5.5,0,9.9,4,9.9,8.9  c0,5-4.4,8.9-9.9,8.9C183.6,371.8,179.2,367.9,179.2,363z" fill-rule="evenodd" clip-rule="evenodd"/>
    <path fill="#1D1D1B" d="M140.2,353.5v29.8h-23.9v-29.8H97.5v77.6h18.8v-29.9h23.9v29.9h18.8v-77.6H140.2z" fill-rule="evenodd" clip-rule="evenodd"/>
    <path fill="#1D1D1B" d="M237.4,431.1h-17.3v-38.7h-6.7v-16.7h6.7v-18.6h17.3v18.6h6.7v16.7h-6.7V431.1z" fill-rule="evenodd" clip-rule="evenodd"/>
    <path fill="#42ACDB" d="M280.4,413.3h15.3c6,0,7.8-3.8,7.8-7c0-3.1-2-6.9-7.8-6.9h-15.3V413.3z M280.4,383.2h14c5.5,0,6.7-3.9,6.7-6  c0-2.1-1.1-6-6.7-6h-14V383.2z M292.3,353.5c22.8,0,26.6,14,26.6,21.1c0,8.9-4.6,13.8-9.5,16.3c7,1.8,11.8,8.8,11.8,17.5  c0,12.2-6.8,22.7-29.5,22.7h-30.1v-77.6H292.3z" fill-rule="evenodd" clip-rule="evenodd"/>
    <path fill="#42ACDB" d="M369.5,431.1h-18.8v-59.8H331v-17.7h58.3v17.7h-19.8V431.1z" fill-rule="evenodd" clip-rule="evenodd"/>
    <path fill="#42ACDB" d="M467.4,365.6l-12.1,11.3c-4.6-4.2-10.5-6.4-17-6.4c-11.5,0-20.5,8.5-20.5,21.8c0,13.3,9.1,21.7,20.5,21.7  c6.5,0,12.4-2.1,17-6.3l12.1,11.3c-7.3,7.9-17.7,12.9-29.1,12.9c-21.7,0-39.3-17.7-39.3-39.6c0-21.8,17.5-39.6,39.3-39.6  C449.7,352.8,460.1,357.7,467.4,365.6z" fill-rule="evenodd" clip-rule="evenodd"/>
</svg>