<svg xmlns="http://www.w3.org/2000/svg" viewBox="0 0 281.95255 124.3668">
    <g transform="matrix(1.3333333,0,0,-1.3333333,-3.0234399,206.14133)">
        <g id="g109" transform="scale(0.1)">
            <path d="M 22.6758,716.32 H 126.973 v 331.91 H 24.2813 v 98.25 H 246.938 V 716.219 H 349.441 V 613.5 L 22.6758,613.309 V 716.32" fill="#2e2d2d" fill-opacity="1" fill-rule="nonzero" stroke="0" />
            <path d="m 320.523,1146.48 h 102.258 v 305.42 l 119.176,90.74 v -396.16 h 131.258 v -98.25 H 541.957 c 0,0 -0.289,-228.839 -0.289,-240.582 0,-101.609 54.5,-91.32 131.547,-91.32 V 614.211 c -104.719,-0.52 -250.707,-17.91 -250.707,193.07 l 0.222,240.949 H 320.523 v 98.25" fill="#2e2d2d" fill-opacity="1" fill-rule="nonzero" stroke="0" />
            <path d="m 1784.63,1146.48 h 102.26 v 305.42 l 119.18,90.74 v -396.16 h 131.25 v -98.25 h -131.25 c 0,0 -0.29,-228.839 -0.29,-240.582 0,-101.609 54.5,-91.32 131.54,-91.32 V 614.211 c -104.71,-0.52 -250.7,-17.91 -250.7,193.07 l 0.22,240.949 h -102.21 v 98.25" fill="#2e2d2d" fill-opacity="1" fill-rule="nonzero" stroke="0" />
            <path d="m 1117.15,715.68 c 162.65,0 221.44,61.191 221.44,165.871 0,82.949 -52.35,166.679 -216.61,166.679 H 983.492 c 0,-19.32 0.801,-331.761 0.801,-331.761 0,0 107.907,-0.789 132.857,-0.789 z m -2.42,430.8 c 134.48,0 181.18,70.04 181.18,149.76 0,96.63 -54.75,144.94 -200.5,144.94 -24.16,0 -111.918,-0.8 -111.918,-0.8 v -293.9 z M 854.645,716.469 V 1441.9 l -117.989,-0.13 v 104.29 c 0,0 363.594,-0.83 390.154,-0.83 223.05,0 301.96,-117.73 301.96,-240.94 0,-99.03 -56.36,-169.09 -128.83,-201.31 99.03,-31.4 173.11,-115.128 173.11,-229.48 0,-111.121 -65.22,-259.27 -355.1,-259.27 -25.75,0 -381.294,0 -381.294,0 v 102.079 l 117.989,0.16" fill="#2e2d2d" fill-opacity="1" fill-rule="nonzero" stroke="0" />
            <path d="m 86.9141,1397.25 c 0,43.93 35.6209,79.55 79.5469,79.55 43.953,0 79.562,-35.62 79.562,-79.55 0,-43.95 -35.609,-79.54 -79.562,-79.54 -43.926,0 -79.5469,35.59 -79.5469,79.54" fill="#fab40a" fill-opacity="1" fill-rule="nonzero" stroke="none" />
            <path d="m 1489.99,716.32 h 103.39 v 331.91 h -102.69 v 98.25 h 222.66 V 716.219 h 102.5 V 613.5 l -325.86,-0.191 V 716.32" fill="#2e2d2d" fill-opacity="1" fill-rule="nonzero" stroke="none" />
            <path d="m 1553.33,1397.25 c 0,43.93 35.62,79.55 79.54,79.55 43.95,0 79.56,-35.62 79.56,-79.55 0,-43.95 -35.61,-79.54 -79.56,-79.54 -43.92,0 -79.54,35.59 -79.54,79.54" fill="#fab40a" fill-opacity="1" stroke="none" fill-rule="nonzero"/>
        </g>
    </g>
</svg>