
<svg xmlns="http://www.w3.org/2000/svg" viewBox="0 0 912.2 638.6">
<path fill="#41D9BF" d="M312.3,355.1l0.1-71.2l31.3,0c15,0,23.3,10.3,23.3,22.4s-8.5,22.3-23.3,22.3l-18.8,0v26.6H312.3z M341.9,294.9
	h-17.1l0,22.7h17.1c7.1,0,12.2-4.5,12.2-11.3S349,294.9,341.9,294.9z"/>
<path fill="#41D9BF" d="M410.5,282.8c21.4,0,36.4,15.6,36.4,36.9s-15.1,36.8-36.5,36.8s-36.3-15.6-36.3-36.9S389.2,282.7,410.5,282.8z
	 M410.5,293.9c-14.4,0-23.6,11-23.6,25.7s9.1,25.7,23.6,25.7s23.6-11.1,23.6-25.7S424.8,293.9,410.5,293.9L410.5,293.9z"/>
<path fill="#41D9BF" d="M459,355.3l0.1-71.2h12.5l-0.1,60.2h31.4v11H459z"/>
<path fill="#41D9BF" d="M544.2,283c21.4,0,36.4,15.6,36.4,36.9s-15.1,36.8-36.5,36.8s-36.4-15.6-36.4-36.9S522.9,282.9,544.2,283z
	 M544.2,294c-14.4,0-23.6,11-23.6,25.7s9.1,25.8,23.6,25.8c14.4,0,23.6-11.1,23.6-25.7S558.6,294.1,544.2,294L544.2,294z"/>
<path fill="#41D9BF" d="M642.4,355.5l-37.1-52v51.9h-12.5l0.1-71.2h12.8l36.3,50.6v-50.5h12.5l-0.1,71.2L642.4,355.5z"/>
<path fill="#41D9BF" d="M669.6,355.5l0.1-71.2h12.5l-0.1,71.2H669.6z"/>
<path fill="#41D9BF" d="M697.3,355.6l0.1-71.3l48.8,0v11l-36.3-0.1v18.5h35.6v11h-35.6v19.7h36.3v11L697.3,355.6z"/>
<path fill="#41D9BF" d="M806.6,355.7l-19.9-27.9l-20,27.9h-15l26.8-36.5l-25-34.8h15l18.3,26.2l18.3-26.1h15.1l-25,34.6l26.5,36.7
	L806.6,355.7z"/>
<path fill="#072B38" d="M238.5,276.8v42.6l-36.9-21.3l-36.9-21.4l37-21.2l36.9-21.3L238.5,276.8z"/>
<path fill="#144556" d="M164.6,319.3v42.6l-36.9-21.3l-36.9-21.4l36.9-21.2l36.9-21.3L164.6,319.3z"/>
<path fill="#41D9BF" d="M90.8,276.6V234l36.9,21.3l36.9,21.3L127.7,298l-36.9,21.2L90.8,276.6z"/>
<path fill="#072B38" d="M90.7,361.8l0.1-42.6l36.9,21.4l36.9,21.3l-36.9,21.3l-37,21.2L90.7,361.8z"/>
<path fill="#41D9BF" d="M201.6,298.1l-36.9-21.4v42.6v42.6l36.8,21.4l36.9,21.3V362l0.1-42.6L201.6,298.1z"/>
</svg>
